<?xml version="1.0" encoding="UTF-8"?>
<svg id="Layer_2" data-name="Layer 2" xmlns="http://www.w3.org/2000/svg" viewBox="0 0 133.63 29.97">
  <defs>
    <style>
      .cls-1 {
        fill: #fff;
      }

      .cls-2 {
        fill: #f58421;
      }

      .cls-3 {
        fill: #f58420;
      }
    </style>
  </defs>
  <g id="Layer_1-2" data-name="Layer 1">
    <g>
      <g>
        <path class="cls-1" d="M48.95,13.98v9.4h-2.9v-2.9c-1.19,2.11-3.23,3.33-5.9,3.33-3.4,0-5.67-1.98-5.67-4.91,0-3.3,2.9-5.34,7.49-5.34,1.32,0,2.7.16,3.92.49v-.07c0-2.77-.96-4.78-3.86-4.78-2.24,0-3.66,1.19-3.17,3.36h-3.2c-.89-3.56,2.18-6.1,6.4-6.1,4.62,0,6.89,3,6.89,7.52ZM45.98,16.59c-1.12-.36-2.51-.56-3.79-.56-2.93,0-4.55,1.15-4.55,2.9,0,1.45,1.12,2.28,2.97,2.28,2.7,0,4.91-1.78,5.37-4.62Z"/>
        <path class="cls-1" d="M64.91,13.98v9.4h-2.9v-2.9c-1.19,2.11-3.23,3.33-5.9,3.33-3.4,0-5.67-1.98-5.67-4.91,0-3.3,2.9-5.34,7.49-5.34,1.32,0,2.7.16,3.92.49v-.07c0-2.77-.96-4.78-3.86-4.78-2.24,0-3.66,1.19-3.17,3.36h-3.2c-.89-3.56,2.18-6.1,6.4-6.1,4.62,0,6.89,3,6.89,7.52ZM61.94,16.59c-1.12-.36-2.51-.56-3.79-.56-2.93,0-4.55,1.15-4.55,2.9,0,1.45,1.12,2.28,2.97,2.28,2.7,0,4.91-1.78,5.37-4.62Z"/>
        <path class="cls-1" d="M67.48.3h3.07v23.08h-3.07V.3Z"/>
        <path class="cls-1" d="M86.97,13.98v9.4h-2.9v-2.9c-1.19,2.11-3.23,3.33-5.9,3.33-3.4,0-5.67-1.98-5.67-4.91,0-3.3,2.9-5.34,7.49-5.34,1.32,0,2.7.16,3.92.49v-.07c0-2.77-.96-4.78-3.86-4.78-2.24,0-3.66,1.19-3.17,3.36h-3.2c-.89-3.56,2.18-6.1,6.4-6.1,4.62,0,6.89,3,6.89,7.52ZM84,16.59c-1.12-.36-2.51-.56-3.79-.56-2.93,0-4.55,1.15-4.55,2.9,0,1.45,1.12,2.28,2.97,2.28,2.7,0,4.91-1.78,5.37-4.62Z"/>
        <path class="cls-1" d="M105.6,15.14c0,5.21-3.13,8.67-7.48,8.67-2.51,0-4.45-1.15-5.67-3.1v9.27h-3.07V6.89h3.07v2.64c1.22-1.95,3.17-3.07,5.67-3.07,4.38,0,7.48,3.5,7.48,8.67ZM102.37,15.14c0-3.53-2.01-5.94-5.01-5.94s-5.01,2.41-5.01,5.94,2.01,5.94,5.01,5.94,5.01-2.41,5.01-5.94Z"/>
        <path class="cls-1" d="M106.76,21.27c0-1.38,1.06-2.44,2.44-2.44s2.44,1.06,2.44,2.44-1.06,2.44-2.44,2.44-2.44-1.02-2.44-2.44Z"/>
        <path class="cls-2" d="M127.4,13.98v9.4h-2.9v-2.9c-1.19,2.11-3.23,3.33-5.9,3.33-3.4,0-5.67-1.98-5.67-4.91,0-3.3,2.9-5.34,7.49-5.34,1.32,0,2.7.16,3.92.49v-.07c0-2.77-.96-4.78-3.86-4.78-2.24,0-3.66,1.19-3.17,3.36h-3.2c-.89-3.56,2.18-6.1,6.4-6.1,4.62,0,6.89,3,6.89,7.52ZM124.43,16.59c-1.12-.36-2.51-.56-3.79-.56-2.93,0-4.55,1.15-4.55,2.9,0,1.45,1.12,2.28,2.97,2.28,2.7,0,4.91-1.78,5.37-4.62Z"/>
        <path class="cls-2" d="M129.38,2.14c0-1.22.92-2.14,2.14-2.14s2.11.92,2.11,2.14-.92,2.14-2.11,2.14-2.14-.96-2.14-2.14ZM129.97,6.89h3.07v16.49h-3.07V6.89Z"/>
      </g>
      <g>
        <g>
          <path class="cls-3" d="M17.44,14.24c2.63-.5,5.28-.91,7.92-1.42.27-.05.85-.11.66-.43-.09-.16-.78-.55-1.01-.69-2.96-1.76-5.93-3.49-8.9-5.24-.34-.2-.42-.65-.18-.96.88-1.13,1.39-2.59,1.29-4.01-.1-1.39-.92-2.85-2.51-2.7-3.01.28-5.06,5.98-2.34,7.86l7.85,4.52c.23.13.24.46.01.61l-3.06,1.94c-.27.25-.07.6.27.53Z"/>
          <path class="cls-1" d="M13.67,7.38l2.77,3.27.59-1.02c.07-.13.26-.16.42-.07l2.21,1.28-2.8-3.28-.58,1.01c-.07.13-.26.16-.42.07l-2.18-1.26Z"/>
        </g>
        <g>
          <path class="cls-3" d="M11.64,16.7c-.88,2.53-1.85,5.03-2.72,7.57-.09.26-.33.79.05.79.18,0,.87-.4,1.1-.53,3-1.68,5.99-3.39,8.99-5.09.34-.19.77-.04.92.33.54,1.32,1.55,2.5,2.83,3.12,1.26.61,2.93.63,3.6-.82,1.26-2.74-2.65-7.37-5.64-5.96l-7.84,4.54c-.23.13-.52-.03-.53-.29l-.15-3.62c-.08-.36-.48-.36-.6-.03Z"/>
          <path class="cls-1" d="M19.47,16.86l-4.22.76.59,1.02c.07.13,0,.31-.15.4l-2.21,1.28,4.24-.79-.58-1.01c-.07-.13,0-.31.15-.4l2.18-1.26Z"/>
        </g>
        <g>
          <path class="cls-3" d="M12.41,10.44c-1.75-2.03-3.43-4.12-5.19-6.14-.18-.21-.52-.68-.7-.35-.09.16-.09.95-.09,1.22-.04,3.44-.06,6.88-.09,10.32,0,.39-.35.69-.74.63-1.41-.2-2.94.09-4.11.89-1.16.78-2.01,2.22-1.08,3.53,1.75,2.46,7.71,1.39,7.98-1.9v-9.06c-.01-.27.27-.44.51-.31l3.21,1.68c.35.11.55-.24.32-.5Z"/>
          <path class="cls-1" d="M8.35,17.14l1.45-4.03h-1.17c-.15,0-.27-.15-.27-.33v-2.55l-1.44,4.07h1.17c.15,0,.27.15.27.33v2.52Z"/>
        </g>
      </g>
    </g>
  </g>
</svg>