<?xml version="1.0" encoding="UTF-8"?>
<svg id="Layer_2" xmlns="http://www.w3.org/2000/svg" viewBox="0 0 35.14 37.54">
  <defs>
    <style>
      .cls-1 {
        fill: #e24a1d;
      }
    </style>
  </defs>
  <g id="Layer_1-2" data-name="Layer_1">
    <path class="cls-1" d="M33.44,31.99V12.87C33.44,3.39,26.66,0,20.26,0c-8.16,0-11.35,5.95-11.35,10.66h.82c-.15-5.19,4.02-9.89,9.83-9.89,5.47,0,7.78,5.16,7.78,11.02v.54c-1.31-.39-2.85-.69-4.62-.69-2.78,0-7.26.81-10.57,1.64-2.11.53-4.16,1.32-5.99,2.49C1.97,18.47-.83,22.69.22,28.98c1,5.55,7.17,8.56,13.49,8.56,7.4,0,11.64-4.47,13.64-11.25v10.79h7.78v-.54c-1.16-.69-1.7-1.85-1.7-4.55ZM27.35,24.9c-1.54,5.55-5.09,11.25-11.79,11.64-3.85.23-8.32-2.31-9.33-6.48C2.92,16.49,14.33,12.33,22.73,12.33c2.39,0,4.24.54,4.62.69v11.87Z"/>
  </g>
</svg>